<svg id="Layer_1" data-name="Layer 1" xmlns="http://www.w3.org/2000/svg" viewBox="0 0 540 132"><defs><style>.cls-1{fill:#fff;}.cls-2{fill:#9ab6c9;}</style></defs><title>logo</title><path class="cls-1" d="M48.56,51.83c2.82-12,8.89-22.19,17.34-31C80,6.07,97.47-.29,117.66,0c13.25,0.22,25.27,3.88,35.55,12.44A52.58,52.58,0,0,1,172.53,49a65,65,0,0,1,.27,11.36c-0.17,2.33-.32,2.45-2.55,2.46q-20.15,0-40.3,0c-2.19,0-2.22-.08-2.08-2.29A42.11,42.11,0,0,0,125.63,43C121,30.74,112.21,23.48,99.3,21.76c-20.85-2.77-39,7.37-48.16,26.55-0.66,1.39-1.25,2.81-1.87,4.21C48.66,52.67,48.37,52.49,48.56,51.83Z"/><path class="cls-2" d="M122.62,85.9c-8.23,22.29-23.39,37.3-46.54,43.45-13.41,3.56-27,3.85-40.36-.49-19.12-6.23-30.48-19.6-34.49-39.25a68.48,68.48,0,0,1-1-17.45c0.17-3.07.22-3.09,3.18-3.09q19.69,0,39.37,0c2.62,0,2.59.18,2.39,2.52a39,39,0,0,0,3,19.85c5.19,11.43,14,18,26.56,19,21.47,1.85,37-7.38,47.35-25.86C123.18,84.58,122.82,85.28,122.62,85.9Z"/><path class="cls-1" d="M433.28,117.66c-2,0-4,.06-6,0-2.8-.1-3-0.26-2.71-3,0.5-4.56,1.17-9.1,1.8-13.64q3.76-27.26,7.54-54.52c0.48-3.43.51-3.46,3.93-3.49,3.87,0,7.75-.06,11.62,0,2.75,0.05,3,.25,2.66,3-0.91,7.54-2,15.06-3,22.59-1.86,13.78-3.78,27.55-5.56,41.34-1,7.69-.9,7.71-8.53,7.71h-1.72Z"/><path class="cls-2" d="M458.26,20.28a11.88,11.88,0,0,1-11.94,12,12.18,12.18,0,0,1-11.84-12.67A11.89,11.89,0,1,1,458.26,20.28Z"/><path class="cls-1" d="M277.87,14.27c13.55-.24,25.7,4.26,35.47,14.61a43.23,43.23,0,0,1,11.86,26.22c1.8,19.18-4.15,35.73-17.83,49.32-9,8.93-20.09,13.64-32.58,15.22a65,65,0,0,1-21.86-.78c-17.46-3.73-30.47-16.67-33.38-34.24-3.62-21.8,2.33-40.72,18.76-55.86C249.29,18.62,262.51,14.2,277.87,14.27Zm-8.55,18.62C246.5,37.38,235.79,60,237.59,76.54c1.69,15.63,12.55,25.52,28.21,25.84C289,102.85,306.86,84.67,306.36,61,306,43.22,293.14,31.77,277.59,32.28A46.14,46.14,0,0,0,269.32,32.89Z"/><path class="cls-1" d="M361.79,49.57a9.72,9.72,0,0,0,3.54-2.32c7.23-5.79,15.52-7.14,24.4-5.66,9.48,1.59,16,7.28,20.7,15.39,13.32,23.13.36,54.44-25.45,61.32-9.87,2.63-19.1,1.57-27-5.5-0.75-.67-1.39-1.45-2.08-2.18s-0.93-1.47-2.09-1.86c-1.3,1.79-.87,4-1.23,6s-1.12,3-3.33,2.92c-4-.14-8,0-12.07-0.05-3.24,0-3.43-.27-3-3.53,1.22-9,2.5-17.91,3.73-26.87Q342,57.38,346,27.51c0.49-3.56,1.12-7.09,1.47-10.66,0.2-2.07,1.2-2.61,3.09-2.57,4.16,0.08,8.33,0,12.5,0,2.75,0.05,2.92.27,2.55,3.07-1.19,9-2.44,17.92-3.66,26.88C361.75,46,361.26,47.62,361.79,49.57Zm2.75,13.25c-7.2,7.36-10.21,16.18-7.93,26.39a17,17,0,0,0,16,13.27c9,0.52,15.85-3.26,20.68-10.71,3.58-5.53,4.47-11.71,3.72-18.17-1.13-9.79-8.17-16.1-18-16.12C373.17,57.47,368.23,59,364.54,62.82Z"/><path class="cls-1" d="M532.25,104.07a35,35,0,0,1-13.76,11.05,47.16,47.16,0,0,1-32.36,3c-13.61-3.49-22-12.37-24.19-26.15-2.7-17,2.4-31.6,16.25-42.4,11.38-8.87,24.35-10.78,37.89-6.42s20.63,14.83,23.08,28.57a36.29,36.29,0,0,1,.16,11.58c-0.25,1.76-1,2.58-2.74,2.5-1,0-2,0-3,0q-24.77,0-49.54,0c-4.83,0-5,.3-3.72,4.87,1.93,6.71,7.19,11,14.38,11.74,6.82,0.69,13.22-.6,18.75-4.74,2-1.53,3.62-1.64,5.77-.41C523.32,99.54,527.56,101.62,532.25,104.07ZM501,58.42C492.46,58.79,484,65.2,483,72h37.14C518,62.95,510.82,58,501,58.42Z"/></svg>