<svg id="Layer_1" data-name="Layer 1" xmlns="http://www.w3.org/2000/svg" viewBox="0 0 540 132"><defs><style>.cls-1{fill:#0095e2;}.cls-2{fill:#9ab6c9;}</style></defs><title>logo</title><path class="cls-1" d="M48.52,51.75c2.83-12,8.89-22.19,17.34-31C80,6,97.45-.38,117.63,0c13.25,0.22,25.27,3.88,35.56,12.44a52.59,52.59,0,0,1,19.33,36.52,65,65,0,0,1,.27,11.36c-0.17,2.33-.32,2.46-2.55,2.46q-20.15,0-40.31,0c-2.19,0-2.22-.08-2.08-2.29a42.12,42.12,0,0,0-2.23-17.57C121,30.66,112.19,23.39,99.27,21.67,78.42,18.9,60.29,29,51.1,48.23c-0.66,1.39-1.25,2.81-1.87,4.21C48.63,52.59,48.34,52.41,48.52,51.75Z"/><path class="cls-2" d="M122.6,85.82c-8.23,22.29-23.39,37.3-46.55,43.46-13.41,3.56-27.06,3.85-40.37-.49-19.13-6.23-30.49-19.6-34.5-39.26a68.5,68.5,0,0,1-1-17.45C0.3,69,.35,69,3.32,69Q23,69,42.7,69c2.62,0,2.59.18,2.39,2.53a39,39,0,0,0,3,19.86c5.19,11.43,14,18,26.57,19,21.48,1.85,37-7.38,47.36-25.87C123.16,84.5,122.8,85.2,122.6,85.82Z"/><path class="cls-1" d="M433.32,117.59c-2,0-4,.06-6,0-2.8-.1-3-0.26-2.71-3,0.5-4.56,1.17-9.1,1.8-13.65q3.76-27.27,7.54-54.54c0.48-3.43.51-3.46,3.93-3.49,3.87,0,7.75-.06,11.62,0,2.75,0.05,3,.25,2.66,3-0.91,7.54-2,15.07-3,22.6-1.86,13.78-3.78,27.56-5.56,41.35-1,7.7-.9,7.71-8.53,7.71h-1.72Z"/><path class="cls-2" d="M458.31,20.19a11.88,11.88,0,0,1-11.94,12,12.19,12.19,0,0,1-11.84-12.67A11.9,11.9,0,1,1,458.31,20.19Z"/><path class="cls-1" d="M277.88,14.18c13.55-.24,25.7,4.26,35.47,14.61A43.24,43.24,0,0,1,325.22,55c1.8,19.18-4.15,35.74-17.83,49.33-9,8.93-20.1,13.64-32.59,15.22a65,65,0,0,1-21.86-.78c-17.47-3.73-30.47-16.67-33.39-34.25-3.62-21.81,2.33-40.73,18.76-55.87C249.29,18.53,262.52,14.11,277.88,14.18ZM269.33,32.8C246.5,37.3,235.8,59.9,237.59,76.47c1.69,15.63,12.55,25.53,28.21,25.84C289,102.78,306.88,84.6,306.38,61,306,43.14,293.15,31.68,277.61,32.2A46.15,46.15,0,0,0,269.33,32.8Z"/><path class="cls-1" d="M361.82,49.49a9.72,9.72,0,0,0,3.54-2.32c7.24-5.8,15.52-7.14,24.4-5.66,9.49,1.59,16,7.28,20.71,15.4,13.33,23.14.36,54.45-25.45,61.33-9.87,2.63-19.1,1.57-27-5.5-0.75-.67-1.39-1.45-2.08-2.18s-0.93-1.47-2.09-1.86c-1.3,1.79-.87,4-1.23,6s-1.12,3-3.34,2.93c-4-.14-8,0-12.07-0.05-3.24,0-3.43-.27-3-3.53,1.22-9,2.5-17.92,3.73-26.88Q342,57.3,346.07,27.43c0.49-3.56,1.12-7.1,1.47-10.66,0.21-2.07,1.2-2.61,3.09-2.57,4.17,0.08,8.33,0,12.5,0,2.75,0.05,2.92.28,2.55,3.07-1.19,9-2.44,17.92-3.66,26.89C361.78,45.87,361.29,47.54,361.82,49.49Zm2.75,13.25c-7.2,7.36-10.22,16.18-7.94,26.39a17,17,0,0,0,16,13.27c9,0.52,15.86-3.26,20.68-10.71,3.58-5.53,4.47-11.72,3.72-18.18-1.13-9.79-8.17-16.1-18-16.12C373.2,57.39,368.26,59,364.57,62.74Z"/><path class="cls-1" d="M532.32,104a35,35,0,0,1-13.77,11.06,47.17,47.17,0,0,1-32.36,3c-13.61-3.49-22-12.37-24.19-26.16-2.7-17,2.4-31.61,16.26-42.41,11.39-8.87,24.36-10.79,37.89-6.42s20.64,14.84,23.08,28.57a36.29,36.29,0,0,1,.16,11.58c-0.25,1.77-1,2.58-2.74,2.5-1,0-2,0-3,0q-24.78,0-49.55,0c-4.83,0-5,.3-3.72,4.87,1.93,6.71,7.19,11,14.39,11.75,6.82,0.69,13.22-.6,18.75-4.75,2-1.53,3.62-1.64,5.77-.41C523.38,99.47,527.62,101.55,532.32,104ZM501.1,58.34c-8.58.37-17.1,6.79-18,13.63h37.15C518.1,62.87,510.88,57.91,501.1,58.34Z"/></svg>